<svg xmlns="http://www.w3.org/2000/svg" viewBox="0 0 1200 900" role="img" aria-label="Circuit board illustration">
  <rect width="1200" height="900" fill="#0f1117" />
  <g stroke="#475569" stroke-width="6" fill="none" opacity="0.7">
    <path d="M120 180h220v120h160v140h160v-90h180" />
    <path d="M240 620h220v-90h150v130h210" />
    <path d="M860 140v180h120v180" />
    <path d="M140 440h120v160h140" />
  </g>
  <g fill="#1f2937">
    <rect x="290" y="120" width="190" height="130" rx="4" />
    <rect x="640" y="320" width="220" height="170" rx="4" />
    <rect x="150" y="560" width="170" height="120" rx="4" />
    <rect x="900" y="180" width="150" height="110" rx="4" />
  </g>
  <g fill="#64748b">
    <circle cx="180" cy="180" r="10" />
    <circle cx="340" cy="300" r="10" />
    <circle cx="660" cy="440" r="10" />
    <circle cx="980" cy="320" r="10" />
    <circle cx="460" cy="530" r="10" />
  </g>
</svg>
