<svg xmlns="http://www.w3.org/2000/svg" viewBox="0 0 1200 900" role="img" aria-label="Technician in server room illustration">
  <defs>
    <linearGradient id="bg" x1="0%" y1="0%" x2="100%" y2="100%">
      <stop offset="0%" stop-color="#0f172a" />
      <stop offset="100%" stop-color="#111827" />
    </linearGradient>
  </defs>
  <rect width="1200" height="900" fill="url(#bg)" />
  <rect x="90" y="120" width="250" height="620" rx="18" fill="#0b1220" stroke="#334155" stroke-width="6" />
  <rect x="860" y="120" width="250" height="620" rx="18" fill="#0b1220" stroke="#334155" stroke-width="6" />
  <g fill="#1f2937">
    <rect x="120" y="160" width="190" height="72" rx="10"/>
    <rect x="120" y="255" width="190" height="72" rx="10"/>
    <rect x="120" y="350" width="190" height="72" rx="10"/>
    <rect x="120" y="445" width="190" height="72" rx="10"/>
    <rect x="120" y="540" width="190" height="72" rx="10"/>
    <rect x="890" y="160" width="190" height="72" rx="10"/>
    <rect x="890" y="255" width="190" height="72" rx="10"/>
    <rect x="890" y="350" width="190" height="72" rx="10"/>
    <rect x="890" y="445" width="190" height="72" rx="10"/>
    <rect x="890" y="540" width="190" height="72" rx="10"/>
  </g>
  <g fill="#7dd3fc">
    <circle cx="280" cy="195" r="8"/>
    <circle cx="280" cy="290" r="8"/>
    <circle cx="280" cy="385" r="8"/>
    <circle cx="280" cy="480" r="8"/>
    <circle cx="280" cy="575" r="8"/>
    <circle cx="1050" cy="195" r="8"/>
    <circle cx="1050" cy="290" r="8"/>
    <circle cx="1050" cy="385" r="8"/>
    <circle cx="1050" cy="480" r="8"/>
    <circle cx="1050" cy="575" r="8"/>
  </g>
  <g transform="translate(470 270)">
    <circle cx="120" cy="80" r="42" fill="#f1f5f9"/>
    <rect x="62" y="134" width="116" height="170" rx="28" fill="#38bdf8"/>
    <rect x="8" y="176" width="100" height="24" rx="12" fill="#f1f5f9"/>
    <rect x="132" y="176" width="100" height="24" rx="12" fill="#f1f5f9"/>
    <rect x="66" y="316" width="34" height="120" rx="16" fill="#f1f5f9"/>
    <rect x="142" y="316" width="34" height="120" rx="16" fill="#f1f5f9"/>
    <rect x="186" y="166" width="128" height="88" rx="14" fill="#1e293b" stroke="#7dd3fc" stroke-width="4"/>
    <rect x="202" y="182" width="96" height="56" rx="10" fill="#0f172a"/>
  </g>
</svg>
