<svg xmlns="http://www.w3.org/2000/svg" viewBox="0 0 1200 900" role="img" aria-label="Technician in server room illustration">
  <rect width="1200" height="900" fill="#0c0f17" />
  <rect x="90" y="120" width="250" height="620" rx="4" fill="#11151f" stroke="#1f2937" stroke-width="2" />
  <rect x="860" y="120" width="250" height="620" rx="4" fill="#11151f" stroke="#1f2937" stroke-width="2" />
  <g fill="#1f2937">
    <rect x="120" y="160" width="190" height="72" rx="2"/>
    <rect x="120" y="255" width="190" height="72" rx="2"/>
    <rect x="120" y="350" width="190" height="72" rx="2"/>
    <rect x="120" y="445" width="190" height="72" rx="2"/>
    <rect x="120" y="540" width="190" height="72" rx="2"/>
    <rect x="890" y="160" width="190" height="72" rx="2"/>
    <rect x="890" y="255" width="190" height="72" rx="2"/>
    <rect x="890" y="350" width="190" height="72" rx="2"/>
    <rect x="890" y="445" width="190" height="72" rx="2"/>
    <rect x="890" y="540" width="190" height="72" rx="2"/>
  </g>
  <g fill="#475569">
    <circle cx="280" cy="195" r="7"/>
    <circle cx="280" cy="290" r="7"/>
    <circle cx="280" cy="385" r="7"/>
    <circle cx="280" cy="480" r="7"/>
    <circle cx="280" cy="575" r="7"/>
    <circle cx="1050" cy="195" r="7"/>
    <circle cx="1050" cy="290" r="7"/>
    <circle cx="1050" cy="385" r="7"/>
    <circle cx="1050" cy="480" r="7"/>
    <circle cx="1050" cy="575" r="7"/>
  </g>
  <g transform="translate(470 290)">
    <circle cx="120" cy="40" r="32" fill="#64748b"/>
    <rect x="68" y="82" width="104" height="148" rx="4" fill="#334155"/>
    <rect x="28" y="112" width="80" height="18" rx="2" fill="#1f2937"/>
    <rect x="152" y="112" width="80" height="18" rx="2" fill="#1f2937"/>
    <rect x="76" y="245" width="28" height="82" rx="2" fill="#1f2937"/>
    <rect x="150" y="245" width="28" height="82" rx="2" fill="#1f2937"/>
  </g>
</svg>
