<svg xmlns="http://www.w3.org/2000/svg" viewBox="0 0 64 64" role="img" aria-label="Jarrett Williams favicon">
  <defs>
    <linearGradient id="bg" x1="0%" y1="0%" x2="100%" y2="100%">
      <stop offset="0%" stop-color="#0b1220" />
      <stop offset="100%" stop-color="#111827" />
    </linearGradient>
    <linearGradient id="accent" x1="0%" y1="0%" x2="100%" y2="100%">
      <stop offset="0%" stop-color="#7dd3fc" />
      <stop offset="100%" stop-color="#38bdf8" />
    </linearGradient>
  </defs>
  <rect width="64" height="64" rx="14" fill="url(#bg)" />
  <path d="M18 16h10v24c0 6.2-4.6 10-11.4 10-2.3 0-4.5-.4-6.6-1.3v-8.6c1.4.8 3 1.2 4.8 1.2 2 0 3.4-.5 4.2-1.6.7-1 1-2.5 1-4.5V16z" fill="url(#accent)" />
  <path d="M34 16h9.3l4.4 14.6L52.2 16H62l-9.7 32h-8.8L34 16z" fill="#edf2f7" />
</svg>
