<svg xmlns="http://www.w3.org/2000/svg" viewBox="0 0 64 64" role="img" aria-label="Skunk favicon">
  <rect width="64" height="64" rx="14" fill="#0b1220" />
  <path d="M48 20c4 3 6 7 6 12 0 8-5 14-12 17-3 1-6 2-10 2-6 0-11-2-15-5-3-3-5-6-5-11 0-4 1-8 4-11 3-4 8-6 14-6 3 0 6 1 9 2 3-2 6-2 9 0z" fill="#05070b"/>
  <path d="M37 14c4 1 7 3 10 6-4-1-8 0-11 3-3 2-5 6-5 10 0 4 1 8 4 11-2 2-5 3-8 3-7 0-12-4-12-11 0-5 2-10 6-14 4-5 10-8 16-8z" fill="#f8fbff"/>
  <circle cx="41" cy="32" r="2.3" fill="#f8fbff"/>
  <circle cx="41" cy="32" r="1" fill="#0b1220"/>
  <path d="M45 38c0 2-2 4-5 4-2 0-4-1-5-3 1 0 2-1 3-1 1 1 2 1 3 1s2 0 3-1c1 0 1 0 1 0z" fill="#0b1220"/>
  <path d="M14 44c-3 1-6 0-8-2 1-2 3-3 5-3 3 0 5 2 6 5h-3z" fill="#05070b"/>
</svg>
