<svg xmlns="http://www.w3.org/2000/svg" viewBox="0 0 64 64" role="img" aria-label="Skunk favicon">
  <defs>
    <linearGradient id="bg" x1="0%" y1="0%" x2="100%" y2="100%">
      <stop offset="0%" stop-color="#0b1220" />
      <stop offset="100%" stop-color="#111827" />
    </linearGradient>
    <linearGradient id="stripe" x1="0%" y1="0%" x2="100%" y2="100%">
      <stop offset="0%" stop-color="#f8fbff" />
      <stop offset="100%" stop-color="#cfe8ff" />
    </linearGradient>
  </defs>
  <rect width="64" height="64" rx="14" fill="url(#bg)" />
  <path d="M14 39c0-8.6 6.5-15 16.8-15 5.4 0 10.5 1.5 13.9 4.5 3.5 3.1 5.3 7.3 5.3 12.3 0 3.2-1.2 5.8-3.4 7.8-1.9 1.8-4.4 2.7-7.4 2.7-2.6 0-4.8-.7-6.7-2.2-1.4-1-2.7-2.4-3.8-4.1-.7 2-1.8 3.5-3.3 4.6-1.5 1.1-3.3 1.7-5.4 1.7-2 0-3.8-.6-5.2-1.9C14.7 47.9 14 45.9 14 43.4V39z" fill="#05070b"/>
  <path d="M43.5 18c3.5 2.2 5.7 5.1 6.8 8.8.9 3.2.9 6.4-.2 9.8-.5-4.7-2.6-8.6-6.1-11.6-1.7-1.5-3.7-2.7-5.9-3.6 1.3-1.8 3.1-3 5.4-3.4z" fill="url(#stripe)"/>
  <path d="M31.2 21.5c3.1 0 5.9.6 8.3 1.9-3.1.9-5.5 2.5-7.2 4.8-1.8 2.3-2.7 5.1-2.7 8.3 0 2.9.7 5.5 2.1 7.8-1.8 1.2-3.8 1.8-6.1 1.8-2.2 0-4-.6-5.4-1.7-1.4-1.1-2.1-2.7-2.1-4.7 0-5.1 1.4-9.3 4.2-12.6 2.2-2.5 5.2-4 8.9-4.6z" fill="url(#stripe)"/>
  <circle cx="42.4" cy="33.8" r="1.8" fill="#edf2f7"/>
  <circle cx="43" cy="34.1" r="0.7" fill="#0b1220"/>
  <path d="M47.7 39.3c0 1.6-.5 2.9-1.5 3.9-1 1-2.3 1.4-3.8 1.4-1.4 0-2.7-.5-3.8-1.4-.5-.5-.9-1-.9-1.7 0-.5.2-.8.7-1.1.6-.4 1.1-.3 1.7.2.7.6 1.4.8 2.3.8.9 0 1.6-.3 2.2-.8.5-.4 1-.5 1.7-.2.9.4 1.4 1 1.4 1.8z" fill="#0b1220"/>
  <path d="M16 46.2c-2.2.4-4 .1-5.5-1-1.1-.8-1.8-1.8-2.1-3.2 2.2.1 4 .6 5.2 1.6 1.2.9 2 2.1 2.4 3.6z" fill="#05070b"/>
</svg>
